<svg xmlns="http://www.w3.org/2000/svg" width="616.169" height="123.681" viewBox="0 0 16302.8 3272.38" shape-rendering="geometricPrecision" text-rendering="geometricPrecision" image-rendering="optimizeQuality" fill-rule="evenodd" clip-rule="evenodd"><defs><style>.fil1{fill:#fbba00}.fil2{fill:#88bd2f}.fil0{fill:#fefefe;fill-rule:nonzero}</style></defs><g id="Слой_x0020_1"><path class="fil0" d="M5985.05 1949.12c114.62 0 211.61 38.73 290.96 116.19 79.35 77.46 119.03 172.25 119.03 284.35 0 114.62-39.36 210.35-118.09 287.18-78.72 76.83-176.02 115.25-291.9 115.25h-496.9V1429.54h793.53v166.27h-617.82v353.31h321.19zm0 638.6c65.5 0 121.23-22.68 167.21-68.02 45.97-45.34 68.96-102.02 68.96-170.04 0-66.76-22.99-122.81-68.96-168.15-45.98-45.35-101.71-68.02-167.21-68.02h-321.19v474.23h321.19zm1192.18-780.31h175.71l-385.43 1003.25c-40.3 107.06-96.98 188.62-170.04 244.67-73.05 56.05-156.19 80.93-249.39 74.63v-153.04c115.88 8.82 200.9-54.16 255.06-188.93l15.11-34.01-409.99-946.57h173.83l323.07 740.63 272.07-740.63zm1133.62 944.68h-192.72L7853.62 2395l-266.4 357.09h-192.71l362.76-485.56-341.98-459.12h194.61l243.72 328.75 243.73-328.75h192.71l-340.08 457.23 360.87 487.45zm772.74-944.68v158.71h-455.33v785.97h-164.37v-944.68h619.7zm888 0h164.37v944.68h-164.37v-162.48c-81.87 124.69-200.9 187.04-357.09 187.04-132.25 0-244.98-48.18-338.19-144.53-93.21-96.36-139.81-213.82-139.81-352.37s46.6-256 139.81-352.36c93.21-96.36 205.94-144.54 338.19-144.54 156.19 0 275.22 62.35 357.09 187.05v-162.49zm-336.31 810.54c95.73 0 175.71-32.44 239.95-97.31 64.24-64.86 96.36-145.16 96.36-240.89 0-95.72-32.12-176.02-96.36-240.89-64.24-64.87-144.22-97.3-239.95-97.3-94.46 0-173.82 32.43-238.05 97.3-64.24 64.87-96.36 145.17-96.36 240.89 0 95.73 32.12 176.03 96.36 240.89 64.23 64.87 143.59 97.31 238.05 97.31zm1537.94-810.54v944.68h-164.38v-785.97h-372.2v385.43c0 154.92-31.17 262.93-93.52 324.02-62.35 61.09-150.21 86.6-263.57 76.52v-154.93c64.24 8.82 112.42-5.35 144.54-42.51 32.12-37.15 48.18-106.12 48.18-206.88v-540.36h700.95zm952.23 0v158.71h-321.19v785.97h-164.38v-785.97h-323.08v-158.71h808.65zm221.05 547.92c16.37 84.39 55.1 149.88 116.19 196.49 61.09 46.6 136.35 69.9 225.78 69.9 124.7 0 215.39-45.97 272.07-137.92l139.81 79.35c-91.95 142.34-230.5 213.5-415.66 213.5-149.89 0-271.75-46.92-365.59-140.76-93.84-93.83-140.75-212.55-140.75-356.14 0-142.33 45.97-260.73 137.92-355.2 91.95-94.46 210.98-141.7 357.09-141.7 138.55 0 251.59 48.81 339.13 146.43 87.54 97.61 131.31 215.07 131.31 352.36 0 23.93-1.89 48.5-5.66 73.69h-791.64zm326.86-417.55c-88.17 0-161.23 24.88-219.17 74.63s-93.84 116.19-107.69 199.33h631.04c-13.85-89.43-49.12-157.45-105.8-204.05-56.68-46.61-122.81-69.91-198.38-69.91zm1180.84-154.93c132.25 0 244.98 48.18 338.19 144.54 93.21 96.36 139.81 213.81 139.81 352.36s-46.6 256.01-139.81 352.37c-93.21 96.35-205.94 144.53-338.19 144.53-156.19 0-275.22-62.35-357.09-187.04v540.35h-164.37V1807.41h164.37v162.49c81.87-124.7 200.9-187.05 357.09-187.05zm-20.79 835.1c94.47 0 173.83-32.44 238.06-97.31 64.24-64.86 96.36-145.16 96.36-240.89 0-95.72-32.12-176.02-96.36-240.89-64.23-64.87-143.59-97.3-238.06-97.3-95.72 0-175.7 32.43-239.94 97.3-64.24 64.87-96.36 145.17-96.36 240.89 0 95.73 32.12 176.03 96.36 240.89 64.24 64.87 144.22 97.31 239.94 97.31zm1381.12-810.54h132.26v944.68h-162.49v-663.16l-523.35 663.16h-132.25v-944.68h162.48v663.17l523.35-663.17zm1088.26 0v944.68h-162.48v-340.08h-137.92l-264.51 340.08h-200.27l275.84-349.53c-70.53-17.63-127.84-52.9-171.93-105.8-44.08-52.91-66.13-114.62-66.13-185.16 0-86.91 30.86-159.33 92.58-217.27s139.18-86.92 232.39-86.92h402.43zm-396.76 457.23h234.28v-304.19h-234.28c-46.6 0-86.28 13.86-119.03 41.57s-49.12 64.87-49.12 111.47c0 45.34 16.37 81.87 49.12 109.58 32.75 27.71 72.43 41.57 119.03 41.57z"/><path class="fil1" d="M274.86 936.14h4599.78v2061.39c0 151.8-123.05 274.86-274.85 274.86H274.86C123.07 3272.39.01 3149.33.01 2997.53V1210.99c0-151.8 123.06-274.85 274.85-274.85z"/><path class="fil2" d="M5446.05 687.34c91.02-121.99 137.14-334.85 64.97-687.35-907.89 140.38-712.69 631.98-626.32 785.22 108.31-177.14 326.6-440.05 469.86-568.45-94.07 136.84-234.54 366.08-312.64 553.91 122.48-140.26 266.04-148.3 404.13-83.33zm285.86 287.75c-465.73-496.94-664.63-154.49-712.9-37.76 137.33-6.6 274.75 10.73 406.15 51.24a1055.716 1055.716 0 0 0-383.94 51.96c79.3 134.92 292.87 383.23 690.69-65.44z"/><path class="fil0" d="M2778.48 1449.27h119.48v119.48h-119.48v-119.48zm-1712.73 749.11l296.91-749.11h197.64l-456.41 1075.39c-66.94 157.71-154.93 227.58-316.75 234.22-74.78 3.07-158.67-12.67-246.52-43.81v-150.79c154.18 45.37 174.15 50.49 229.32 49.47 74.89-1.4 138.38-40.18 210.46-208.95l-439.78-955.53H731.3l334.45 749.11zm1295.1 560.24h-164.66v-348.06c-72.34 19.06-146.18 28.44-221.86 28.44-231.19 0-368.57-119-370.45-354.73v-286.32h164.04v291.77c0 143.19 71.73 205.71 206.41 205.71 75.68 0 149.52-9.38 221.86-28.44v-467.22h164.66v958.85zm656.02 0c-307.58 0-456.55-201.79-456.55-482.92 0-245.27 159.15-475.93 435.5-475.93 344.3 0 409.72 251.61 409.72 524.91h-693.29c4.67 168.55 126.15 299.52 309.87 299.52 110.99 0 197.16-36.88 266.55-119.29l104 75.23c-83.59 118.99-208.96 178.48-375.8 178.48zm-21.05-829.37c-160.57 0-259.59 126.1-277.9 265.95h535.69c0-143.29-97.02-265.95-257.79-265.95zm1338.22 3.09H4012v826.28h-164.04v-826.28h-315.68v-132.57h801.76v132.57zm-1266.13-482.03h119.47v119.47h-119.47v-119.47z"/></g></svg>