<svg height="512" viewBox="0 0 64 64" width="512" xmlns="http://www.w3.org/2000/svg"><path d="M61 7h-4V5c0-1.654-1.346-3-3-3s-3 1.346-3 3v2h-5V5c0-1.654-1.346-3-3-3s-3 1.346-3 3v2h-5V5c0-1.654-1.346-3-3-3s-3 1.346-3 3v2h-5V5c0-1.654-1.346-3-3-3s-3 1.346-3 3v2h-5V5c0-1.654-1.346-3-3-3S7 3.346 7 5v2H3a1 1 0 0 0-1 1v49c0 2.757 2.243 5 5 5h50c2.757 0 5-2.243 5-5V8a1 1 0 0 0-1-1zm-8-2c0-.551.449-1 1-1s1 .449 1 1v6c0 .551-.449 1-1 1s-1-.449-1-1zM42 5c0-.551.449-1 1-1s1 .449 1 1v6c0 .551-.449 1-1 1s-1-.449-1-1zM31 5c0-.551.449-1 1-1s1 .449 1 1v6c0 .551-.449 1-1 1s-1-.449-1-1zM20 5c0-.551.449-1 1-1s1 .449 1 1v6c0 .551-.449 1-1 1s-1-.449-1-1zM9 5c0-.551.449-1 1-1s1 .449 1 1v6c0 .551-.449 1-1 1s-1-.449-1-1zM7 9v2c0 1.654 1.346 3 3 3s3-1.346 3-3V9h5v2c0 1.654 1.346 3 3 3s3-1.346 3-3V9h5v2c0 1.654 1.346 3 3 3s3-1.346 3-3V9h5v2c0 1.654 1.346 3 3 3s3-1.346 3-3V9h5v2c0 1.654 1.346 3 3 3s3-1.346 3-3V9h3v9H4V9zm50 51H7c-1.654 0-3-1.346-3-3V20h56v37c0 1.654-1.346 3-3 3z"/><path d="M29 22h-8a1 1 0 0 0-1 1v8a1 1 0 0 0 1 1h8a1 1 0 0 0 1-1v-8a1 1 0 0 0-1-1zm-1 8h-6v-6h6zM15 22H7a1 1 0 0 0-1 1v8a1 1 0 0 0 1 1h8a1 1 0 0 0 1-1v-8a1 1 0 0 0-1-1zm-1 8H8v-6h6zM43 22h-8a1 1 0 0 0-1 1v8a1 1 0 0 0 1 1h8a1 1 0 0 0 1-1v-8a1 1 0 0 0-1-1zm-1 8h-6v-6h6zM57 22h-8a1 1 0 0 0-1 1v8a1 1 0 0 0 1 1h8a1 1 0 0 0 1-1v-8a1 1 0 0 0-1-1zm-1 8h-6v-6h6zM15 35H7a1 1 0 0 0-1 1v8a1 1 0 0 0 1 1h8a1 1 0 0 0 1-1v-8a1 1 0 0 0-1-1zm-1 8H8v-6h6zM29 35h-8a1 1 0 0 0-1 1v8a1 1 0 0 0 1 1h8a1 1 0 0 0 1-1v-8a1 1 0 0 0-1-1zm-1 8h-6v-6h6zM43 35h-8a1 1 0 0 0-1 1v8a1 1 0 0 0 1 1h8a1 1 0 0 0 1-1v-8a1 1 0 0 0-1-1zm-1 8h-6v-6h6zM57 35h-8a1 1 0 0 0-1 1v8a1 1 0 0 0 1 1h8a1 1 0 0 0 1-1v-8a1 1 0 0 0-1-1zm-1 8h-6v-6h6zM57 48h-8a1 1 0 0 0-1 1v8a1 1 0 0 0 1 1h8a1 1 0 0 0 1-1v-8a1 1 0 0 0-1-1zm-1 8h-6v-6h6zM15 48H7a1 1 0 0 0-1 1v8a1 1 0 0 0 1 1h8a1 1 0 0 0 1-1v-8a1 1 0 0 0-1-1zm-1 8H8v-6h6zM29 48h-8a1 1 0 0 0-1 1v8a1 1 0 0 0 1 1h8a1 1 0 0 0 1-1v-8a1 1 0 0 0-1-1zm-1 8h-6v-6h6zM43 48h-8a1 1 0 0 0-1 1v8a1 1 0 0 0 1 1h8a1 1 0 0 0 1-1v-8a1 1 0 0 0-1-1zm-1 8h-6v-6h6z"/></svg>