<svg xmlns="http://www.w3.org/2000/svg" width="684.219" height="123.681" viewBox="0 0 18103.28 3272.38" shape-rendering="geometricPrecision" text-rendering="geometricPrecision" image-rendering="optimizeQuality" fill-rule="evenodd" clip-rule="evenodd"><defs><style>.fil1{fill:#b0cb1f}.fil2{fill:#88bd2f}.fil0{fill:#fefefe;fill-rule:nonzero}</style></defs><g id="Слой_x0020_1"><path class="fil0" d="M6588.67 2576.38c-132.89 133.51-295.06 200.27-486.51 200.27s-353.31-66.76-485.56-200.27c-132.26-133.51-198.38-295.37-198.38-485.56 0-191.46 66.12-353.63 198.38-486.51 132.25-132.88 294.11-199.33 485.56-199.33s353.62 66.45 486.51 199.33c132.88 132.88 199.32 295.05 199.32 486.51 0 190.19-66.44 352.05-199.32 485.56zm-850.21-119.97c97.62 98.87 218.85 148.31 363.7 148.31s266.08-49.44 363.7-148.31c97.62-98.88 146.42-220.74 146.42-365.59 0-146.11-48.8-268.61-146.42-367.48-97.62-98.88-218.85-148.32-363.7-148.32s-266.08 49.44-363.7 148.32c-97.62 98.87-146.42 221.37-146.42 367.48 0 144.85 48.8 266.71 146.42 365.59zm1897.85-649h164.38v944.68h-164.38v-394.87h-489.34v394.87H6982.6v-944.68h164.37v392.99h489.34v-392.99zm1201.63 0v944.68h-164.38v-785.97h-372.2v385.43c0 154.92-31.17 262.93-93.52 324.02-62.35 61.09-150.21 86.6-263.57 76.52v-154.93c64.24 8.82 112.42-5.35 144.54-42.51 32.12-37.15 48.18-106.12 48.18-206.88v-540.36h700.95zm1031.58 0h164.37v944.68h-164.37v-162.48c-81.87 124.69-200.9 187.04-357.09 187.04-132.25 0-244.98-48.18-338.19-144.53-93.21-96.36-139.81-213.82-139.81-352.37s46.6-256 139.81-352.36c93.21-96.36 205.94-144.54 338.19-144.54 156.19 0 275.22 62.35 357.09 187.05v-162.49zm-336.31 810.54c95.73 0 175.71-32.44 239.95-97.31 64.24-64.86 96.36-145.16 96.36-240.89 0-95.72-32.12-176.02-96.36-240.89-64.24-64.87-144.22-97.3-239.95-97.3-94.46 0-173.82 32.43-238.05 97.3-64.24 64.87-96.36 145.17-96.36 240.89 0 95.73 32.12 176.03 96.36 240.89 64.23 64.87 143.59 97.31 238.05 97.31zm905-952.24v-143.59h510.13v143.59h-510.13zm530.91 141.7h132.26v944.68h-162.49v-663.16l-523.35 663.16h-132.25v-944.68h162.48v663.17l523.35-663.17zm1035.36 0h164.38v944.68h-164.38v-394.87h-489.34v394.87h-164.37v-944.68h164.37v392.99h489.34v-392.99zm1864.79 944.68h-215.39l-570.58-634.82v634.82h-175.71V1429.54h175.71v597.04l551.69-597.04h215.39l-583.81 642.38 602.7 680.17zm836.98-944.68h164.37v944.68h-164.37v-162.48c-81.87 124.69-200.9 187.04-357.09 187.04-132.25 0-244.98-48.18-338.19-144.53-93.21-96.36-139.81-213.82-139.81-352.37s46.6-256 139.81-352.36c93.21-96.36 205.94-144.54 338.19-144.54 156.19 0 275.22 62.35 357.09 187.05v-162.49zm-336.31 810.54c95.73 0 175.71-32.44 239.95-97.31 64.24-64.86 96.36-145.16 96.36-240.89 0-95.72-32.12-176.02-96.36-240.89-64.24-64.87-144.22-97.3-239.95-97.3-94.46 0-173.82 32.43-238.05 97.3-64.24 64.87-96.36 145.17-96.36 240.89 0 95.73 32.12 176.03 96.36 240.89 64.23 64.87 143.59 97.31 238.05 97.31zm1194.07 158.7c-142.33 0-260.73-47.55-355.19-142.64-94.47-95.1-141.7-213.19-141.7-354.26s47.23-259.15 141.7-354.25c94.46-95.1 212.86-142.65 355.19-142.65 93.21 0 176.97 22.36 251.29 67.08 74.31 44.71 129.73 104.85 166.26 180.43l-137.92 79.35c-23.93-50.38-60.78-90.69-110.53-120.92-49.75-30.23-106.12-45.34-169.1-45.34-94.46 0-173.5 32.12-237.11 96.36-63.61 64.23-95.41 144.22-95.41 239.94 0 94.47 31.8 173.82 95.41 238.06 63.61 64.24 142.65 96.36 237.11 96.36 62.98 0 119.66-14.8 170.05-44.4 50.38-29.6 88.8-69.59 115.25-119.98l139.81 81.25c-40.31 74.31-98.25 133.83-173.82 178.54-75.58 44.71-159.34 67.07-251.29 67.07zm1018.36 0c-142.33 0-260.73-47.55-355.19-142.64-94.47-95.1-141.7-213.19-141.7-354.26s47.23-259.15 141.7-354.25c94.46-95.1 212.86-142.65 355.19-142.65 93.21 0 176.97 22.36 251.29 67.08 74.31 44.71 129.73 104.85 166.26 180.43l-137.92 79.35c-23.93-50.38-60.78-90.69-110.53-120.92-49.75-30.23-106.12-45.34-169.1-45.34-94.46 0-173.5 32.12-237.11 96.36-63.61 64.23-95.41 144.22-95.41 239.94 0 94.47 31.8 173.82 95.41 238.06 63.61 64.24 142.65 96.36 237.11 96.36 62.98 0 119.66-14.8 170.05-44.4 50.38-29.6 88.8-69.59 115.25-119.98l139.81 81.25c-40.31 74.31-98.25 133.83-173.82 178.54-75.58 44.71-159.34 67.07-251.29 67.07zm1356.56-969.24h164.37v944.68h-164.37v-162.48c-81.87 124.69-200.9 187.04-357.09 187.04-132.25 0-244.98-48.18-338.19-144.53-93.21-96.36-139.81-213.82-139.81-352.37s46.6-256 139.81-352.36c93.21-96.36 205.94-144.54 338.19-144.54 156.19 0 275.22 62.35 357.09 187.05v-162.49zm-336.31 810.54c95.73 0 175.71-32.44 239.95-97.31 64.24-64.86 96.36-145.16 96.36-240.89 0-95.72-32.12-176.02-96.36-240.89-64.24-64.87-144.22-97.3-239.95-97.3-94.46 0-173.82 32.43-238.05 97.3-64.24 64.87-96.36 145.17-96.36 240.89 0 95.73 32.12 176.03 96.36 240.89 64.23 64.87 143.59 97.31 238.05 97.31z"/><path class="fil1" d="M274.83 936.14h4599.78v2061.39c0 151.8-123.05 274.86-274.85 274.86H274.83c-151.79 0-274.85-123.06-274.85-274.86V1210.99c0-151.8 123.06-274.85 274.85-274.85z"/><path class="fil2" d="M5446.02 687.34c91.02-121.99 137.14-334.85 64.97-687.35-907.89 140.38-712.69 631.98-626.32 785.22 108.31-177.14 326.6-440.05 469.86-568.45-94.07 136.84-234.54 366.08-312.64 553.91 122.48-140.26 266.04-148.3 404.13-83.33zm285.86 287.75c-465.73-496.94-664.63-154.49-712.9-37.76 137.33-6.6 274.75 10.73 406.15 51.24a1055.716 1055.716 0 0 0-383.94 51.96c79.3 134.92 292.87 383.23 690.69-65.44z"/><path class="fil0" d="M2778.45 1449.27h119.48v119.48h-119.48v-119.48zm-1712.73 749.11l296.91-749.11h197.64l-456.41 1075.39c-66.94 157.71-154.93 227.58-316.75 234.22-74.78 3.07-158.67-12.67-246.52-43.81v-150.79c154.18 45.37 174.15 50.49 229.32 49.47 74.89-1.4 138.38-40.18 210.46-208.95l-439.78-955.53h190.68l334.45 749.11zm1295.1 560.24h-164.66v-348.06c-72.34 19.06-146.18 28.44-221.86 28.44-231.19 0-368.57-119-370.45-354.73v-286.32h164.04v291.77c0 143.19 71.73 205.71 206.41 205.71 75.68 0 149.52-9.38 221.86-28.44v-467.22h164.66v958.85zm656.02 0c-307.58 0-456.55-201.79-456.55-482.92 0-245.27 159.15-475.93 435.5-475.93 344.3 0 409.72 251.61 409.72 524.91h-693.29c4.67 168.55 126.15 299.52 309.87 299.52 110.99 0 197.16-36.88 266.55-119.29l104 75.23c-83.59 118.99-208.96 178.48-375.8 178.48zm-21.05-829.37c-160.57 0-259.59 126.1-277.9 265.95h535.69c0-143.29-97.02-265.95-257.79-265.95zm1338.22 3.09h-322.04v826.28h-164.04v-826.28h-315.68v-132.57h801.76v132.57zm-1266.13-482.03h119.47v119.47h-119.47v-119.47z"/></g></svg>