<svg xmlns="http://www.w3.org/2000/svg" width="1114.522" height="141.422" viewBox="0 0 29488.4 3741.8" shape-rendering="geometricPrecision" text-rendering="geometricPrecision" image-rendering="optimizeQuality" fill-rule="evenodd" clip-rule="evenodd"><defs><style>.fil1{fill:#e32831}.fil2{fill:#88bd2f}.fil0,.fil3{fill-rule:nonzero}.fil3{fill:#fefefe}.fil0{fill:#fff}</style></defs><g id="Слой_x0020_1"><path class="fil0" d="M7372.29 1641.74V3154h-200.92V1831.86h-695.63V3154h-200.91V1641.74h1097.46zm900.87 403.99c151.22 0 280.12 55.09 386.7 165.27 106.58 110.19 159.86 244.48 159.86 402.91 0 158.42-53.28 292.73-159.86 402.91-106.58 110.17-235.48 165.26-386.7 165.26-178.6 0-314.7-71.29-408.31-213.87v617.86H7676.9V2073.81h187.95v185.8c93.61-142.58 229.71-213.88 408.31-213.88zm-23.77 954.89c108.02 0 198.76-37.09 272.2-111.27 73.46-74.16 110.19-165.98 110.19-275.44 0-109.45-36.73-201.27-110.19-275.45-73.44-74.17-164.18-111.25-272.2-111.25-109.45 0-200.91 37.08-274.36 111.25-73.45 74.18-110.18 166-110.18 275.45 0 109.46 36.73 201.28 110.18 275.44 73.45 74.18 164.91 111.27 274.36 111.27zm1706.68 17.28c-110.89 109.46-245.55 164.18-403.99 164.18-158.42 0-292.72-54.72-402.9-164.18-110.18-109.47-165.26-244.13-165.26-403.99 0-159.87 55.08-294.53 165.26-403.99 110.18-109.45 244.48-164.19 402.9-164.19 158.44 0 293.1 54.74 403.99 164.19 110.91 109.46 166.35 244.12 166.35 403.99 0 159.86-55.44 294.52-166.35 403.99zm-403.99-19.44c108.03 0 198.76-36.73 272.21-110.18 73.46-73.46 110.18-164.91 110.18-274.37 0-109.45-36.72-200.92-110.18-274.36-73.45-73.45-164.18-110.18-272.21-110.18-106.56 0-196.59 36.73-270.03 110.18-73.45 73.44-110.18 164.91-110.18 274.36 0 109.46 36.73 200.91 110.18 274.37 73.44 73.45 163.47 110.18 270.03 110.18zm1512.26-399.67c110.9 46.08 166.35 129.62 166.35 250.6 0 89.29-29.89 162.39-89.66 219.27-59.77 56.89-145.1 85.34-256 85.34h-540.08V2073.81h496.88c108.02 0 191.55 27.01 250.59 81.03 59.05 54 88.59 124.93 88.59 212.79 0 103.7-38.89 180.75-116.67 231.16zm-231.16-356.47h-304.61v283.02h304.61c109.46 0 164.19-48.26 164.19-144.75 0-92.17-54.73-138.27-164.19-138.27zm41.05 741.01c54.73 0 96.85-12.96 126.37-38.89 29.54-25.92 44.3-62.65 44.3-110.17 0-44.65-14.76-79.57-44.3-104.78-29.52-25.21-71.64-37.81-126.37-37.81h-345.66v291.65h345.66zm691.31-283c18.72 96.49 63.01 171.38 132.86 224.67 69.85 53.29 155.91 79.93 258.17 79.93 142.58 0 246.28-52.56 311.09-157.7l159.87 90.73c-105.14 162.75-263.57 244.12-475.29 244.12-171.39 0-310.73-53.65-418.03-160.95-107.3-107.29-160.94-243.04-160.94-407.22 0-162.75 52.57-298.13 157.71-406.15 105.14-108.01 241.24-162.03 408.31-162.03 158.42 0 287.68 55.81 387.77 167.44 100.1 111.61 150.15 245.92 150.15 402.9 0 27.36-2.16 55.45-6.47 84.26h-905.2zm373.75-477.45c-100.82 0-184.36 28.45-250.61 85.34s-107.3 132.86-123.14 227.92h721.56c-15.84-102.26-56.17-180.03-120.98-233.32-64.81-53.29-140.42-79.94-226.83-79.94zm1350.22-177.15c151.22 0 280.12 55.09 386.7 165.27 106.58 110.19 159.86 244.48 159.86 402.91 0 158.42-53.28 292.73-159.86 402.91-106.58 110.17-235.48 165.26-386.7 165.26-178.6 0-314.7-71.29-408.31-213.87v617.86h-187.95V2073.81h187.95v185.8c93.61-142.58 229.71-213.88 408.31-213.88zm-23.77 954.89c108.02 0 198.76-37.09 272.2-111.27 73.46-74.16 110.18-165.98 110.18-275.44 0-109.45-36.72-201.27-110.18-275.45-73.44-74.17-164.18-111.25-272.2-111.25-109.45 0-200.91 37.08-274.36 111.25-73.46 74.18-110.18 166-110.18 275.45 0 109.46 36.72 201.28 110.18 275.44 73.45 74.18 164.91 111.27 274.36 111.27zM14974.58 3154h-233.32l-492.55-512.01V3154h-187.95V2073.81h187.95v477.45l466.63-477.45h241.97l-516.34 522.82 533.61 557.37zm970.01-1080.19h187.94V3154h-187.94v-185.79c-93.62 142.58-229.72 213.87-408.31 213.87-151.22 0-280.12-55.09-386.7-165.26-106.58-110.18-159.87-244.49-159.87-402.91 0-158.43 53.29-292.72 159.87-402.91 106.58-110.18 235.48-165.27 386.7-165.27 178.59 0 314.69 71.3 408.31 213.88v-185.8zm-384.55 926.81c109.46 0 200.91-37.09 274.36-111.27 73.46-74.16 110.19-165.98 110.19-275.44 0-109.45-36.73-201.27-110.19-275.45-73.45-74.17-164.9-111.25-274.36-111.25-108.01 0-198.76 37.08-272.2 111.25-73.45 74.18-110.18 166-110.18 275.45 0 109.46 36.73 201.28 110.18 275.44 73.44 74.18 164.19 111.27 272.2 111.27zM17871.62 3154h-233.31l-492.56-512.01V3154h-187.95V2073.81h187.95v477.45l466.63-477.45h241.97l-516.33 522.82 533.6 557.37zm987.28-136.1c-110.89 109.46-245.55 164.18-403.98 164.18s-292.72-54.72-402.91-164.18c-110.18-109.47-165.26-244.13-165.26-403.99 0-159.87 55.08-294.53 165.26-403.99 110.19-109.45 244.48-164.19 402.91-164.19 158.43 0 293.09 54.74 403.98 164.19 110.91 109.46 166.35 244.12 166.35 403.99 0 159.86-55.44 294.52-166.35 403.99zm-403.98-19.44c108.02 0 198.75-36.73 272.2-110.18 73.46-73.46 110.19-164.91 110.19-274.37 0-109.45-36.73-200.92-110.19-274.36-73.45-73.45-164.18-110.18-272.2-110.18-106.57 0-196.6 36.73-270.04 110.18-73.45 73.44-110.18 164.91-110.18 274.36 0 109.46 36.73 200.91 110.18 274.37 73.44 73.45 163.47 110.18 270.04 110.18zm1540.33-924.65h187.96V3154h-187.96v-451.51h-559.53V3154h-187.94V2073.81h187.94v449.37h559.53v-449.37zm1276.78 0v181.48h-367.26V3154h-187.96v-898.71h-369.42v-181.48h924.64zm760.45-28.08c151.22 0 280.12 55.09 386.7 165.27 106.58 110.19 159.86 244.48 159.86 402.91 0 158.42-53.28 292.73-159.86 402.91-106.58 110.17-235.48 165.26-386.7 165.26-178.6 0-314.7-71.29-408.32-213.87v617.86h-187.94V2073.81h187.94v185.8c93.62-142.58 229.72-213.88 408.32-213.88zm-23.78 954.89c108.02 0 198.77-37.09 272.21-111.27 73.46-74.16 110.18-165.98 110.18-275.44 0-109.45-36.72-201.27-110.18-275.45-73.44-74.17-164.19-111.25-272.21-111.25-109.45 0-200.9 37.08-274.35 111.25-73.46 74.18-110.19 166-110.19 275.45 0 109.46 36.73 201.28 110.19 275.44 73.45 74.18 164.9 111.27 274.35 111.27zm1689.41-926.81h187.95V3154h-187.95v-185.79c-93.61 142.58-229.71 213.87-408.31 213.87-151.22 0-280.12-55.09-386.7-165.26-106.58-110.18-159.86-244.49-159.86-402.91 0-158.43 53.28-292.72 159.86-402.91 106.58-110.18 235.48-165.27 386.7-165.27 178.6 0 314.7 71.3 408.31 213.88v-185.8zm-384.55 926.81c109.46 0 200.92-37.09 274.37-111.27 73.46-74.16 110.18-165.98 110.18-275.44 0-109.45-36.72-201.27-110.18-275.45-73.45-74.17-164.91-111.25-274.37-111.25-108.01 0-198.75 37.08-272.19 111.25-73.46 74.18-110.19 166-110.19 275.45 0 109.46 36.73 201.28 110.19 275.44 73.44 74.18 164.18 111.27 272.19 111.27zm1566.26-926.81v181.48h-520.64V3154h-187.95V2073.81h708.59zm252.77 626.52c18.72 96.49 63.01 171.38 132.86 224.67 69.85 53.29 155.91 79.93 258.16 79.93 142.59 0 246.29-52.56 311.1-157.7l159.86 90.73c-105.14 162.75-263.56 244.12-475.28 244.12-171.39 0-310.73-53.65-418.03-160.95-107.3-107.29-160.94-243.04-160.94-407.22 0-162.75 52.57-298.13 157.71-406.15 105.13-108.01 241.24-162.03 408.31-162.03 158.42 0 287.67 55.81 387.77 167.44 100.1 111.61 150.15 245.92 150.15 402.9 0 27.36-2.17 55.45-6.48 84.26h-905.19zm373.75-477.45c-100.82 0-184.36 28.45-250.61 85.34s-107.3 132.86-123.14 227.92h721.56c-15.84-102.26-56.17-180.03-120.98-233.32-64.81-53.29-140.42-79.94-226.83-79.94zm1501.44-149.07h187.95V3154h-187.95v-451.51h-559.54V3154h-187.94V2073.81h187.94v449.37h559.54v-449.37zm1276.77 0v181.48h-367.26V3154h-187.96v-898.71h-369.42v-181.48h924.64zm1015.36 0h187.95V3154h-187.95v-185.79c-93.61 142.58-229.71 213.87-408.31 213.87-151.22 0-280.12-55.09-386.7-165.26-106.58-110.18-159.86-244.49-159.86-402.91 0-158.43 53.28-292.72 159.86-402.91 106.58-110.18 235.48-165.27 386.7-165.27 178.6 0 314.7 71.3 408.31 213.88v-185.8zm-384.55 926.81c109.47 0 200.92-37.09 274.37-111.27 73.46-74.16 110.18-165.98 110.18-275.44 0-109.45-36.72-201.27-110.18-275.45-73.45-74.17-164.9-111.25-274.37-111.25-108.01 0-198.75 37.08-272.19 111.25-73.46 74.18-110.18 166-110.18 275.45 0 109.46 36.72 201.28 110.18 275.44 73.44 74.18 164.18 111.27 272.19 111.27z"/><path class="fil1" d="M313.74 1077.57h5259.57v2357.07c0 173.58-140.7 314.29-314.27 314.29H313.74c-173.56 0-314.27-140.71-314.27-314.29v-2042.8c0-173.57 140.71-314.27 314.27-314.27z"/><path class="fil2" d="M6226.68 793.08c104.09-139.49 156.82-382.88 74.3-785.94-1038.12 160.51-814.92 722.63-716.16 897.85 123.84-202.54 373.45-503.17 537.26-649.99-107.56 156.47-268.19 418.59-357.49 633.37 140.04-160.38 304.21-169.58 462.09-95.29zm326.87 329.03c-532.53-568.23-759.96-176.66-815.16-43.18a1355.329 1355.329 0 0 1 464.41 58.59 1207.233 1207.233 0 0 0-439.01 59.41c90.67 154.28 334.88 438.21 789.76-74.82z"/><path class="fil3" d="M3176.48 1664.31h136.62v136.61h-136.62v-136.61zm-1958.4 856.56l339.5-856.56h225.99l-521.88 1229.63c-76.54 180.34-177.15 260.23-362.18 267.82-85.51 3.52-181.43-14.48-281.88-50.1v-172.41c176.3 51.88 199.12 57.74 262.2 56.56 85.64-1.59 158.23-45.93 240.66-238.92L617.63 1664.31h218.02l382.43 856.56zm1480.86 640.59h-188.27v-397.99c-82.71 21.8-167.15 32.53-253.68 32.53-264.36 0-421.45-136.07-423.59-405.61V2063h187.57v333.62c0 163.73 82.02 235.22 236.02 235.22 86.53 0 170.97-10.73 253.68-32.53v-534.23h188.27v1096.38zm750.13 0c-351.7 0-522.04-230.73-522.04-552.18 0-280.46 181.98-544.2 497.96-544.2 393.7 0 468.5 287.7 468.5 600.2h-792.74c5.34 192.73 144.25 342.49 354.33 342.49 126.91 0 225.43-42.18 304.77-136.41l118.92 86.02c-95.58 136.06-238.93 204.08-429.7 204.08zm-24.08-948.33c-183.59 0-296.82 144.19-317.76 304.1h612.53c0-163.84-110.93-304.1-294.77-304.1zm1530.18 3.53h-368.23v944.8h-187.58v-944.8h-360.95v-151.58h916.76v151.58zm-1447.74-551.17h136.61v136.6h-136.61v-136.6z"/></g></svg>